# xmcd CD database file
# Copyright (C) 1996 Ti Kan
#
# Track frame offsets:
# 	150
# 	15152
# 	29115
# 	45935
# 	59407
# 	77660
# 	88787
# 	99080
# 	112595
# 	123570
#
# Disc length: 1730 seconds
#
# Revision: 1
# Processed by: cddbd v1.4b41PL1 Copyright (c) Steve Scherf et al.
# Submitted via: DiscPlay 3.4.1
#
DISCID=6a06c00a
DTITLE=Various Artist - NEW COUNTRY AUGUST 1996
DYEAR=1900
DGENRE=
TTITLE0=SWEET LOVE
TTITLE1=RUNAWAY
TTITLE2=YOU'LL NEVER KNOW
TTITLE3=CLINGING TO YOU
TTITLE4=CIRCUS LEAVING TOWN
TTITLE5=TELL ME WHY CHARLENE
TTITLE6=SIN NOW...PRAY LATER
TTITLE7=TREAT ME LIKE A DOG
TTITLE8=BAD CASE OF THE BLUES
TTITLE9=THE MAN UPSTAIRS
EXTD=
EXTT0=MARTY STUART
EXTT1=THE COX FAMILY
EXTT2=WILLY DeVILLE WITH BRENDA LEE
EXTT3=TEXAS TORNADOS
EXTT4=PHILIP CLAYPOOL
EXTT5=WEBB WILDER
EXTT6=THE CARPETBAGGERS
EXTT7=SLEEPY LaBEEF
EXTT8=LAUREL CANYON RAMBLERS
EXTT9=PATSY CLINE
PLAYORDER=
